<svg xmlns="http://www.w3.org/2000/svg" xmlns:xlink="http://www.w3.org/1999/xlink" viewBox="0,0,256,256" width="50px" height="50px" fill-rule="nonzero"><g fill="#ff6b01" fill-rule="nonzero" stroke="none" stroke-width="1" stroke-linecap="butt" stroke-linejoin="miter" stroke-miterlimit="10" stroke-dasharray="" stroke-dashoffset="0" font-family="none" font-weight="none" font-size="none" text-anchor="none" style="mix-blend-mode: normal"><g transform="scale(5.12,5.12)"><path d="M13.34,4.13l6.92,11.87h-16.26v-1c0,-5.52 4.05,-10.08 9.34,-10.87zM33.26,16h-10.69l-7,-12h10.69zM46,15v1h-10.43l-7,-12h6.43c6.08,0 11,4.92 11,11zM4,18v17c0,6.08 4.92,11 11,11h20c6.08,0 11,-4.92 11,-11v-17zM31,32.19l-7.99,4.54c-1.33,0.76 -3.01,-0.18 -3.01,-1.69v-9.08c0,-1.51 1.68,-2.45 3.01,-1.69l7.99,4.54c1.33,0.75 1.33,2.63 0,3.38z"></path></g></g></svg>